HIERARCHY
ROOT root
{
	OFFSET 0.000000 0.000000 0.000000
	CHANNELS 6 Xposition Yposition Zposition Zrotation Yrotation Xrotation
	JOINT lhip
	{
		OFFSET 0.058581 -0.082280 -0.017664
		CHANNELS 3 Zrotation Yrotation Xrotation
		JOINT lknee
		{
			OFFSET 0.043451 -0.386469 0.008037
			CHANNELS 3 Zrotation Yrotation Xrotation
			JOINT lankle
			{
				OFFSET -0.014790 -0.426874 -0.037428
				CHANNELS 3 Zrotation Yrotation Xrotation
				JOINT ltoe
				{
					OFFSET 0.041054 -0.060286 0.122042
					CHANNELS 3 Zrotation Yrotation Xrotation
					End Site
					{
						OFFSET 0.000000 0.000000 0.000000
					}
				}
			}
		}
	}
	JOINT rhip
	{
		OFFSET -0.060310 -0.090513 -0.013543
		CHANNELS 3 Zrotation Yrotation Xrotation
		JOINT rknee
		{
			OFFSET -0.043257 -0.383688 -0.004843
			CHANNELS 3 Zrotation Yrotation Xrotation
			JOINT rankle
			{
				OFFSET 0.019056 -0.420046 -0.034562
				CHANNELS 3 Zrotation Yrotation Xrotation
				JOINT rtoe
				{
					OFFSET -0.034840 -0.062106 0.130323
					CHANNELS 3 Zrotation Yrotation Xrotation
					End Site
					{
						OFFSET 0.000000 0.000000 0.000000
					}
				}
			}
		}
	}
	JOINT lowerback
	{
		OFFSET 0.004439 0.124404 -0.038385
		CHANNELS 3 Zrotation Yrotation Xrotation
		JOINT upperback
		{
			OFFSET 0.004488 0.137956 0.026820
			CHANNELS 3 Zrotation Yrotation Xrotation
			JOINT chest
			{
				OFFSET -0.002265 0.056032 0.002855
				CHANNELS 3 Zrotation Yrotation Xrotation
				JOINT lowerneck
				{
					OFFSET -0.013390 0.211636 -0.033468
					CHANNELS 3 Zrotation Yrotation Xrotation
					JOINT upperneck
					{
						OFFSET 0.010113 0.088937 0.050410
						CHANNELS 3 Zrotation Yrotation Xrotation
						End Site
						{
							OFFSET 0.000000 0.000000 0.000000
						}
					}
				}
				JOINT lclavicle
				{
					OFFSET 0.071702 0.114000 -0.018898
					CHANNELS 3 Zrotation Yrotation Xrotation
					JOINT lshoulder
					{
						OFFSET 0.122921 0.045205 -0.019046
						CHANNELS 3 Zrotation Yrotation Xrotation
						JOINT lelbow
						{
							OFFSET 0.255332 -0.015649 -0.022946
							CHANNELS 3 Zrotation Yrotation Xrotation
							JOINT lwrist
							{
								OFFSET 0.265709 0.012698 -0.007375
								CHANNELS 3 Zrotation Yrotation Xrotation
								End Site
								{
									OFFSET 0.000000 0.000000 0.000000
								}
							}
						}
					}
				}
				JOINT rclavicle
				{
					OFFSET -0.082954 0.112472 -0.023707
					CHANNELS 3 Zrotation Yrotation Xrotation
					JOINT rshoulder
					{
						OFFSET -0.113228 0.046853 -0.008472
						CHANNELS 3 Zrotation Yrotation Xrotation
						JOINT relbow
						{
							OFFSET -0.260127 -0.014369 -0.031269
							CHANNELS 3 Zrotation Yrotation Xrotation
							JOINT rwrist
							{
								OFFSET -0.269108 0.006794 -0.006027
								CHANNELS 3 Zrotation Yrotation Xrotation
								End Site
								{
									OFFSET 0.000000 0.000000 0.000000
								}
							}
						}
					}
				}
			}
		}
	}
}
MOTION
Frames: 8
Frame Time: 0.033333
-0.190808 0.266162 0.994051 91.939918 -0.783354 87.834819 -1.164624 -0.766259 3.387836 -3.378298 -10.320110 5.448289 4.691331 5.846515 -10.789959 0.000000 -0.000000 0.000000 0.905832 -1.476714 -0.673507 -0.512783 -1.391749 13.604226 1.593236 -10.538593 -11.499985 0.000000 -0.000000 0.000000 -0.224902 -0.100491 8.791524 1.435798 -1.207799 -4.707467 0.078965 -2.415642 -0.697196 2.774279 1.095999 -9.154172 -3.640957 -5.379483 11.774420 -29.886931 6.067747 0.350805 -56.720160 -6.868211 11.245053 3.989947 -25.598550 12.275996 -6.339820 -3.635108 -3.868421 32.319952 -0.872736 -1.803627 53.002766 3.549618 15.225873 -10.521484 18.169065 -6.727117 7.988414 2.845253 -6.232244 
-0.191329 0.266140 0.993887 91.800746 -0.765537 87.795897 -1.156190 -0.795236 3.397687 -3.405542 -10.278967 5.448959 4.682746 6.039216 -10.810502 0.000000 -0.000000 0.000000 0.919503 -1.350492 -0.709459 -0.485955 -1.317890 13.673446 1.690411 -10.599571 -11.518821 0.000000 -0.000000 0.000000 -0.245910 -0.153589 8.652332 1.406023 -1.169580 -4.629211 0.101343 -2.406326 -0.653204 2.776779 1.477922 -9.034188 -3.615985 -5.042876 11.827801 -29.776964 5.831727 0.640236 -56.874588 -6.943931 11.242866 4.380202 -25.781736 11.911270 -6.311563 -3.600759 -3.977619 32.310053 -0.736383 -1.498843 53.195617 3.801515 15.262984 -10.655110 17.954197 -6.905722 8.016446 2.896958 -6.323575 
-0.191578 0.266086 0.993792 91.648833 -0.786833 87.761802 -1.201330 -0.785580 3.467580 -3.368921 -10.209971 5.367315 4.636142 6.072054 -10.743563 0.000000 -0.000000 0.000000 0.883633 -1.319222 -0.707579 -0.504284 -1.257833 13.692808 1.740048 -10.511770 -11.508330 0.000000 -0.000000 0.000000 -0.275243 -0.228357 8.661007 1.339658 -1.120621 -4.605132 0.076666 -2.354383 -0.654241 2.819568 1.802183 -9.317451 -3.540396 -4.936607 11.854445 -29.663121 5.773871 0.630266 -56.894435 -6.924372 11.263346 4.456514 -25.743724 11.938546 -6.389107 -3.777981 -3.977661 32.279822 -0.585463 -1.336572 53.409555 3.795962 15.336034 -10.734545 17.986727 -7.076619 8.004210 2.896829 -6.469751 
-0.192252 0.266102 0.993769 91.505817 -0.760763 87.736366 -1.189908 -0.764018 3.440424 -3.386494 -10.107665 5.414678 4.639337 6.186059 -10.742219 0.000000 -0.000000 0.000000 0.902904 -1.184285 -0.723094 -0.476322 -1.254242 13.689733 1.721815 -10.513196 -11.559183 0.000000 -0.000000 0.000000 -0.239530 -0.251144 8.766650 1.300817 -1.083553 -4.674848 0.056451 -2.312575 -0.727952 2.762250 1.876068 -9.433767 -3.572283 -4.852590 11.850365 -29.642686 5.696914 0.625612 -56.863738 -6.896581 11.209200 4.486893 -25.501614 11.888672 -6.450047 -3.811375 -4.002208 32.289833 -0.548769 -1.180315 53.494677 3.808010 15.425370 -10.752758 17.998413 -6.877297 8.123662 2.854719 -6.454987 
-0.192663 0.266077 0.993794 91.436903 -0.748385 87.703494 -1.200189 -0.831960 3.477804 -3.374943 -10.166099 5.359881 4.660525 6.283848 -10.748152 0.000000 -0.000000 0.000000 0.934198 -1.109148 -0.729643 -0.495033 -1.185790 13.708507 1.692319 -10.555981 -11.562250 0.000000 -0.000000 0.000000 -0.208917 -0.280974 8.858209 1.280930 -1.042969 -4.655625 0.013707 -2.312744 -0.695189 2.740422 1.897910 -9.783216 -3.639498 -5.001957 11.836238 -29.741681 5.703182 0.664051 -56.715593 -6.871294 11.232736 4.575392 -25.593482 11.839792 -6.342339 -4.187101 -3.880235 32.306611 -0.482055 -1.260239 53.495304 3.823210 15.537989 -10.654942 17.956055 -6.719597 7.983382 3.010366 -6.401484 
-0.193371 0.266176 0.994050 91.595833 -0.710923 87.799718 -1.177353 -0.927720 3.124331 -3.396351 -10.061492 5.730532 4.679243 6.176588 -10.742359 0.000000 -0.000000 0.000000 0.971855 -1.261207 -0.877120 -0.500739 -1.191861 13.737612 1.657173 -10.599251 -11.502095 0.000000 -0.000000 0.000000 -0.099083 -0.197283 8.891645 1.262711 -1.208142 -4.737139 -0.045428 -2.389062 -0.626778 2.567924 1.839674 -10.097236 -3.577138 -4.911405 11.668347 -29.718455 5.746072 0.663697 -56.765194 -6.834541 11.165180 4.645620 -25.522841 11.711275 -6.329550 -3.910628 -4.119026 32.287880 -0.538561 -1.397163 53.484697 3.867141 15.509501 -10.540420 18.064517 -6.680121 7.987036 2.962408 -6.529303 
-0.193558 0.266397 0.994259 91.454293 -0.718942 87.760358 -1.202626 -0.878531 3.141898 -3.388421 -9.994091 5.753725 4.586172 6.264250 -10.745393 0.000000 -0.000000 0.000000 0.934856 -1.259774 -0.809702 -0.478908 -1.128146 13.626896 1.758555 -10.538263 -11.482560 0.000000 -0.000000 0.000000 -0.001159 -0.101477 9.114279 1.160844 -1.130682 -4.689237 -0.102365 -2.370032 -0.470398 2.458463 1.843970 -10.997600 -3.528094 -4.982019 11.579698 -29.871467 6.012707 0.209999 -56.529740 -6.806002 11.113470 4.294574 -25.490009 12.073832 -6.365958 -3.710379 -4.062149 32.376438 -0.808558 -1.953201 53.335562 3.859636 15.448760 -10.255174 18.298856 -6.422290 7.941032 3.029416 -6.243391 
-0.194166 0.266603 0.994383 91.339858 -0.710699 87.841749 -1.227823 -0.823158 3.002737 -3.354845 -10.015997 5.768572 4.659961 6.233009 -10.747730 0.000000 -0.000000 0.000000 0.960134 -1.232750 -1.067045 -0.532736 -1.031047 13.886613 1.869477 -10.531423 -11.526812 0.000000 -0.000000 0.000000 -0.001514 -0.082149 9.163423 1.134549 -1.041364 -4.750848 -0.118818 -2.288643 -0.482980 2.453590 1.822116 -11.246020 -3.547342 -5.059611 11.558939 -29.997964 6.137592 0.135411 -56.373426 -6.684959 11.037705 4.193664 -25.508178 11.978209 -6.260699 -3.437393 -3.728281 32.379892 -0.890194 -1.964612 53.275933 3.873388 15.406649 -10.280026 18.439697 -6.496976 7.779750 3.086158 -6.090250 
